<svg xmlns="http://www.w3.org/2000/svg" viewBox="0 0 512 512" width="512" height="512" role="img" aria-label="FoodBridge">
  <title>FoodBridge</title>
  <!--
    Same mark as logo.svg, tuned for tab size: the leaf is scaled up a little so
    it still reads as a leaf at 16px, where the previous bridge detail turned to
    mush. Keep the two in sync if the brand mark changes.
    Leaf glyph: Font Awesome Free 6.5.1 "leaf" (solid), CC BY 4.0.
  -->
  <defs>
    <linearGradient id="fbTile" x1="0" y1="0" x2="1" y2="1">
      <stop offset="0" stop-color="#2dd4bf"/>
      <stop offset="1" stop-color="#134e4a"/>
    </linearGradient>
  </defs>

  <rect width="512" height="512" rx="154" fill="url(#fbTile)"/>

  <g transform="translate(97.3 97.3) scale(0.62)">
    <path fill="#ffffff" d="M272 96c-78.6 0-145.1 51.5-167.7 122.5c33.6-17 71.5-26.5 111.7-26.5h88c8.8 0 16 7.2 16 16s-7.2 16-16 16H288 216s0 0 0 0c-16.6 0-32.7 1.9-48.3 5.4c-25.9 5.9-49.9 16.4-71.4 30.7c0 0 0 0 0 0C38.3 298.8 0 364.9 0 440v16c0 13.3 10.7 24 24 24s24-10.7 24-24V440c0-48.7 20.7-92.5 53.8-123.2C121.6 392.3 190.3 448 272 448l1 0c132.1-.7 239-130.9 239-291.4c0-42.6-7.5-83.1-21.1-119.6c-2.6-6.9-12.7-6.6-16.2-.1C455.9 72.1 418.7 96 376 96L272 96z"/>
  </g>
</svg>
